<svg width="0" height="0" class="hidden">
  <symbol fill="none" xmlns="http://www.w3.org/2000/svg" viewBox="0 0 14 14" id="alert-close-icon">
    <path d="M6.87429 8.21683L12.2806 13.6235C12.6166 13.9594 13.1625 13.9585 13.4976 13.6235C13.8334 13.2876 13.8336 12.7424 13.4974 12.4065L8.09136 7.00017L13.4977 1.59381C13.8335 1.2579 13.8335 0.712594 13.4977 0.376814C13.1618 0.0408994 12.6166 0.0408994 12.2807 0.376814L6.87436 5.78317L1.468 0.376814C1.13209 0.0408994 0.58692 0.0408994 0.251273 0.376814C0.0833122 0.544774 0.00037717 0.764291 0.000507163 0.984845C-0.000143833 1.20593 0.0833155 1.42572 0.251273 1.59381L5.65763 7.00017L0.251939 12.4059C0.0839789 12.5741 -0.000259385 12.7942 5.99946e-07 13.0146C0.000391211 13.235 0.0839792 13.455 0.25181 13.6231C0.587591 13.9589 1.13289 13.959 1.46881 13.6231L6.87429 8.21683Z" fill="var(--clr-alert-close-icon)"></path>
  </symbol>
</svg>