<svg width="21" height="17" viewBox="0 0 21 17" fill="none" xmlns="http://www.w3.org/2000/svg">
<path d="M3.16655 14.1273C3.16977 14.4629 3.4428 14.7334 3.77865 14.7334H17.288C17.6238 14.7334 17.8968 14.4629 17.9001 14.1273V7.36702L17.5318 7.00994H17.5316C17.2168 6.75683 16.8575 6.56463 16.472 6.4432C15.8962 6.25973 15.2812 6.23544 14.6924 6.37319C14.1039 6.51093 13.5635 6.8054 13.1287 7.22528L11.6326 8.67598L10.9072 9.37858L10.2896 9.99068L10.2329 10.0474C10.1494 10.1091 10.0477 10.141 9.94394 10.1379C9.83882 10.1385 9.73599 10.107 9.64928 10.0474L8.86168 9.27672H8.86149C8.46343 8.89801 7.93484 8.68682 7.38534 8.68682C6.83585 8.68682 6.30729 8.89799 5.90919 9.27672L3.16638 11.9287L3.16655 14.1273Z" fill="black" fill-opacity="0.5"/>
<path d="M7.1334 7.36701C7.58421 7.36701 8.01663 7.1879 8.33556 6.86895C8.65431 6.5502 8.83342 6.11779 8.83342 5.66699C8.83342 5.21599 8.65431 4.78356 8.33556 4.46484C8.01661 4.14608 7.5842 3.96697 7.1334 3.96697C6.6826 3.96697 6.25017 4.14608 5.93124 4.46484C5.61249 4.78359 5.43338 5.216 5.43338 5.66699C5.43338 6.1178 5.61249 6.55022 5.93124 6.86895C6.25019 7.1879 6.6826 7.36701 7.1334 7.36701Z" fill="black" fill-opacity="0.5"/>
<path d="M19.6004 9.63338C19.7507 9.63338 19.8947 9.57381 20.0011 9.46755C20.1074 9.36111 20.1669 9.21711 20.1669 9.06684V2.26676C20.1669 1.66548 19.9283 1.08908 19.5031 0.663882C19.0781 0.238877 18.5015 0 17.9004 0H3.16656C2.56548 0 1.98888 0.238877 1.56388 0.663882C1.13868 1.08908 0.899994 1.66548 0.899994 2.26676V14.7332C0.899994 15.3345 1.13868 15.9109 1.56388 16.3361C1.98888 16.7611 2.56548 17 3.16656 17H17.9004C18.5015 17 19.0781 16.7611 19.5031 16.3361C19.9283 15.9109 20.1669 15.3345 20.1669 14.7332V11.8999C20.1669 11.5871 19.9133 11.3332 19.6004 11.3332C19.2873 11.3332 19.0337 11.5871 19.0337 11.8999V14.7332C19.0337 15.034 18.9143 15.3222 18.7016 15.5347C18.4891 15.7472 18.2009 15.8667 17.9004 15.8667H3.16656C2.86602 15.8667 2.57782 15.7472 2.36532 15.5347C2.15263 15.3222 2.03329 15.034 2.03329 14.7332V2.26676C2.03329 1.96603 2.15263 1.67782 2.36532 1.46532C2.57782 1.25282 2.86605 1.13329 3.16656 1.13329H17.9004C18.2009 1.13329 18.4891 1.25282 18.7016 1.46532C18.9143 1.67782 19.0337 1.96605 19.0337 2.26676V9.06684C19.0337 9.21711 19.0934 9.36111 19.1997 9.46755C19.3059 9.57381 19.4501 9.63338 19.6004 9.63338H19.6004Z" fill="black" fill-opacity="0.5"/>
</svg>
