<svg width="22" height="17" viewBox="0 0 22 17" fill="none" xmlns="http://www.w3.org/2000/svg">
<path d="M21.837 16.2714C21.9772 16.3758 22.0345 16.5579 21.9791 16.7231C21.9236 16.8884 21.7679 16.9999 21.5926 16.9999C21.5042 17.0017 21.4178 16.9732 21.3481 16.919L11 9.00973L0.651869 16.919C0.58221 16.9732 0.495816 17.0017 0.407425 16.9999C0.232096 16.9999 0.0764064 16.8884 0.0209339 16.7231C-0.0345386 16.5579 0.0227525 16.3758 0.162981 16.2714L10.3319 8.49997L0.162981 0.728586C-0.0170784 0.594511 -0.0534517 0.340812 0.0815 0.161922C0.216452 -0.0169675 0.47181 -0.0531044 0.651869 0.0809705L11 7.9902L21.3481 0.0809705C21.5282 -0.0531044 21.7835 -0.0169675 21.9185 0.161922C22.0535 0.340812 22.0171 0.594511 21.837 0.728586L11.6681 8.49997L21.837 16.2714Z" fill="#272838" fill-opacity="0.85"/>
</svg>
