<svg width="113" height="103" viewBox="0 0 113 103" fill="none" xmlns="http://www.w3.org/2000/svg">
<path d="M101.374 0.85083H11.507C5.2234 0.85083 0.125 5.95594 0.125 12.2496V73.3973C0.125 79.6901 5.22255 84.7961 11.507 84.7961H18.9763L23.1262 77.6717H11.5078C9.13686 77.6717 7.23973 75.7718 7.23973 73.3973L7.2389 27.4475H105.76V73.2785C105.76 75.653 103.863 77.5529 101.492 77.5529H89.8738L94.0237 84.6774H101.493C107.777 84.6774 112.875 79.5723 112.875 73.2785L112.873 12.2496C112.755 5.95678 107.657 0.85083 101.373 0.85083H101.374ZM16.9606 18.1863C14.7078 18.1863 12.9299 16.4056 12.9299 14.1496C12.9299 11.8935 14.7079 10.1129 16.9606 10.1129C19.2133 10.1129 20.9914 11.8935 20.9914 14.1496C20.9914 16.4049 19.2133 18.1863 16.9606 18.1863ZM28.8164 18.1863C26.5636 18.1863 24.7856 16.4056 24.7856 14.1496C24.7856 11.8935 26.5636 10.1129 28.8164 10.1129C31.0691 10.1129 32.8471 11.8935 32.8471 14.1496C32.8471 16.4049 31.0691 18.1863 28.8164 18.1863ZM40.7905 18.1863C38.5377 18.1863 36.7597 16.4056 36.7597 14.1496C36.7597 11.8935 38.5378 10.1129 40.7905 10.1129C43.0432 10.1129 44.8212 11.8935 44.8212 14.1496C44.822 16.4049 43.0432 18.1863 40.7905 18.1863ZM94.1414 17.1171H76.4767C74.817 17.1171 73.5128 15.811 73.5128 14.1487C73.5128 12.4865 74.817 11.1804 76.4767 11.1804H94.142C95.8018 11.1804 97.106 12.4865 97.106 14.1487C97.1051 15.811 95.8018 17.1171 94.1412 17.1171H94.1414Z" fill="#D2D2D2"/>
<path d="M61.2171 45.8625C60.1544 43.9623 58.2648 42.8938 56.1395 42.8938C54.0143 42.8938 52.1246 43.9623 51.0619 45.8625L23.5463 93.2431C22.4836 95.1433 22.4836 97.2804 23.5463 99.1806C24.6089 101.081 26.4986 102.149 28.6238 102.149H83.5371C85.6624 102.149 87.5521 101.081 88.6147 99.1806C89.6773 97.2804 89.6773 95.1433 88.6147 93.2431L61.2171 45.8625ZM56.1395 57.8565C58.5012 57.8565 60.5087 59.8751 60.3909 62.25L59.5638 78.6375C59.446 80.4184 58.0284 81.8439 56.2572 81.8439C54.4861 81.8439 52.9506 80.4192 52.9506 78.6375L52.1236 62.25C51.7702 59.8753 53.7777 57.8565 56.1393 57.8565H56.1395ZM56.1395 93.9561C53.6591 93.9561 51.6518 91.9374 51.6518 89.4434C51.6518 86.9493 53.6593 84.9307 56.1395 84.9307C58.6198 84.9307 60.6273 86.9494 60.6273 89.4434C60.6273 91.9375 58.6198 93.9561 56.1395 93.9561Z" fill="#D2D2D2"/>
</svg>
