<svg width="233" height="209" viewBox="0 0 233 209" fill="none" xmlns="http://www.w3.org/2000/svg">
<path d="M208.897 0H23.4834C10.5191 0 0 10.5329 0 23.5182V149.679C0 162.662 10.5173 173.197 23.4834 173.197H38.8942L47.4564 158.498H23.4851C18.5934 158.498 14.6792 154.578 14.6792 149.679L14.6775 54.8746H217.948V149.434C217.948 154.333 214.034 158.253 209.142 158.253H185.171L193.733 172.952H209.144C222.108 172.952 232.627 162.419 232.627 149.434L232.624 23.5182C232.38 10.5347 221.862 0 208.897 0H208.897ZM34.7354 35.7668C30.0874 35.7668 26.4191 32.0929 26.4191 27.4382C26.4191 22.7834 30.0876 19.1096 34.7354 19.1096C39.3833 19.1096 43.0517 22.7834 43.0517 27.4382C43.0517 32.0913 39.3833 35.7668 34.7354 35.7668ZM59.1964 35.7668C54.5484 35.7668 50.8801 32.0929 50.8801 27.4382C50.8801 22.7834 54.5485 19.1096 59.1964 19.1096C63.8442 19.1096 67.5126 22.7834 67.5126 27.4382C67.5126 32.0913 63.8442 35.7668 59.1964 35.7668ZM83.9015 35.7668C79.2535 35.7668 75.5852 32.0929 75.5852 27.4382C75.5852 22.7834 79.2536 19.1096 83.9015 19.1096C88.5493 19.1096 92.2178 22.7834 92.2178 27.4382C92.2195 32.0913 88.5493 35.7668 83.9015 35.7668ZM193.976 33.5607H157.53C154.105 33.5607 151.415 30.8659 151.415 27.4364C151.415 24.0069 154.105 21.3121 157.53 21.3121H193.977C197.401 21.3121 200.092 24.0069 200.092 27.4364C200.091 30.8659 197.402 33.5607 193.975 33.5607H193.976Z" fill="#D2D2D2"/>
<path d="M126.046 92.8685C123.854 88.948 119.955 86.7434 115.57 86.7434C111.185 86.7434 107.286 88.948 105.094 92.8685L48.3231 190.625C46.1306 194.545 46.1306 198.954 48.3231 202.875C50.5155 206.795 54.4143 209 58.7992 209H172.097C176.482 209 180.381 206.795 182.573 202.875C184.766 198.954 184.766 194.545 182.573 190.625L126.046 92.8685ZM115.57 117.615C120.442 117.615 124.585 121.779 124.341 126.679L122.635 160.49C122.392 164.165 119.467 167.106 115.813 167.106C112.159 167.106 108.99 164.166 108.99 160.49L107.284 126.679C106.555 121.78 110.697 117.615 115.57 117.615H115.57ZM115.57 192.096C110.452 192.096 106.311 187.931 106.311 182.785C106.311 177.639 110.453 173.475 115.57 173.475C120.687 173.475 124.829 177.639 124.829 182.785C124.829 187.931 120.687 192.096 115.57 192.096Z" fill="#D2D2D2"/>
</svg>
