<svg width="0" height="0" class="hidden">
  <symbol fill="none" xmlns="http://www.w3.org/2000/svg" viewBox="0 0 22 21" id="flight-ticket">
    <path d="M20.8083 7.49927H1.1917C0.550039 7.49927 0 8.04931 0 8.69097V19.1409C0 19.7826 0.504165 20.3326 1.1917 20.3326H20.8083C21.45 20.3326 22 19.7826 22 19.1409V8.69097C22 8.04931 21.45 7.49927 20.8083 7.49927V7.49927ZM8.43334 16.5742L8.38746 16.6201L7.0583 19.2785C6.6916 18.8661 6.6916 18.4076 6.82907 17.7659L7.1499 15.9784C6.3249 15.3827 5.31653 14.6034 4.49153 13.6868L2.24575 17.0327C1.78746 16.4369 1.64996 15.6576 1.9708 14.9703L3.20837 12.0825C2.15413 10.57 2.06255 9.6993 2.52084 9.3326C2.97913 8.9659 3.80412 9.19512 5.13333 10.6618L7.97502 10.066C8.70843 9.9285 9.44168 10.2034 9.94585 10.7535L6.3709 12.1743C7.05844 13.1827 7.60832 14.2826 8.0209 15.1994L9.85426 15.2452C10.4959 15.2452 10.9542 15.3368 11.3209 15.7494L8.43334 16.5742ZM13.8875 19.2326C13.8875 19.4618 13.7041 19.645 13.4751 19.645C13.2458 19.645 13.0627 19.4617 13.0627 19.2326V18.4076C13.0627 18.1784 13.246 17.9952 13.4751 17.9952C13.7043 17.9952 13.8875 18.1785 13.8875 18.4076V19.2326ZM13.8875 16.8033C13.8875 17.0325 13.7041 17.2157 13.4751 17.2157C13.2458 17.2157 13.0627 17.0324 13.0627 16.8033V15.9783C13.0627 15.7491 13.246 15.5659 13.4751 15.5659C13.7043 15.5659 13.8875 15.7493 13.8875 15.9783V16.8033ZM13.8875 14.3284C13.8875 14.5577 13.7041 14.7409 13.4751 14.7409C13.2458 14.7409 13.0627 14.5575 13.0627 14.3284V13.5035C13.0627 13.2742 13.246 13.091 13.4751 13.091C13.7043 13.091 13.8875 13.2744 13.8875 13.5035V14.3284ZM13.8875 11.8535C13.8875 12.0827 13.7041 12.2659 13.4751 12.2659C13.2458 12.2659 13.0627 12.0825 13.0627 11.8535L13.0625 11.0742C13.0625 10.8449 13.2458 10.6618 13.4749 10.6618C13.7041 10.6618 13.8873 10.8451 13.8873 11.0742L13.8875 11.8535ZM13.8875 9.42418C13.8875 9.65341 13.7041 9.8366 13.4751 9.8366C13.2458 9.8366 13.0627 9.65324 13.0627 9.42418V8.59918C13.0627 8.36995 13.246 8.18677 13.4751 8.18677C13.7043 8.18677 13.8875 8.37012 13.8875 8.59918V9.42418ZM20.075 19.0491H15.95C15.5833 19.0491 15.2624 18.7283 15.2624 18.3616C15.2624 17.9949 15.5833 17.6741 15.95 17.6741H20.075C20.4417 17.6741 20.7625 17.9949 20.7625 18.3616C20.7623 18.7283 20.4415 19.0491 20.075 19.0491ZM20.075 15.9782H15.95C15.5833 15.9782 15.2624 15.6574 15.2624 15.2907C15.2624 14.9239 15.5833 14.6031 15.95 14.6031H20.075C20.4417 14.6031 20.7625 14.9239 20.7625 15.2907C20.7623 15.6574 20.4415 15.9782 20.075 15.9782ZM20.075 12.9533H15.95C15.5833 12.9533 15.2624 12.6325 15.2624 12.2658C15.2624 11.8991 15.5833 11.5782 15.95 11.5782H20.075C20.4417 11.5782 20.7625 11.899 20.7625 12.2658C20.7623 12.6325 20.4415 12.9533 20.075 12.9533ZM20.075 9.88251H15.95C15.5833 9.88251 15.2624 9.56169 15.2624 9.19497C15.2624 8.82827 15.5833 8.50743 15.95 8.50743H20.075C20.4417 8.50743 20.7625 8.82826 20.7625 9.19497C20.7623 9.56167 20.4415 9.88251 20.075 9.88251Z" fill="var(--clr-icon)"></path>
    <path d="M20.8541 6.58261L18.6541 0.761798C18.4248 0.166007 17.7375 -0.154784 17.1415 0.0742592C0.366582 6.4909 0.412415 5.89507 0.0915833 6.9034C1.00816 6.30761 0.503999 6.67417 20.854 6.58258L20.8541 6.58261Z" fill="var(--clr-icon)"></path>
  </symbol>
</svg>