<svg width="0" height="0" class="hidden">
    <symbol fill="none" xmlns="http://www.w3.org/2000/svg" viewBox="0 0 15 9" id="flight-result-trip">
        <path d="M14.8249 4.15319L10.2181 0.124353C10.0068 -0.0605294 9.6874 -0.0362558 9.50546 0.177176C9.32282 0.391084 9.3461 0.713971 9.5574 0.898872L13.0885 3.98661H0.505349C0.226349 3.98661 0 4.21551 0 4.49818C0 4.78085 0.226349 5.00975 0.505349 5.00975H13.2155L11.2028 6.8283L9.63057 8.08701C9.41198 8.26237 9.37437 8.58407 9.5476 8.80584C9.64726 8.93338 9.79534 9 9.9446 9C10.0544 9 10.1651 8.96407 10.2579 8.8896L11.8527 7.61116L14.8308 4.92173C14.9393 4.82394 15.0009 4.68331 15 4.53603C14.9986 4.38874 14.9354 4.24931 14.8249 4.15318L14.8249 4.15319Z" fill="var(--clr-icon)"></path>
    </symbol>
</svg>