<svg width="86" height="86" viewBox="0 0 86 86" fill="none" xmlns="http://www.w3.org/2000/svg">
<path d="M83.6397 72.2346L63.9064 52.5034C60.9676 57.0745 57.0781 60.9666 52.5034 63.9089L72.2346 83.6364C75.3832 86.7886 80.4926 86.7886 83.6376 83.6364C86.7874 80.4996 86.7874 75.3853 83.64 72.2346" fill="#D2D2D2"/>
<path d="M64.499 32.254C64.499 14.4433 50.0551 0 32.2449 0C14.4427 0 0 14.4439 0 32.254C0 50.0599 14.4439 64.499 32.2449 64.499C50.0544 64.499 64.499 50.0599 64.499 32.254ZM32.2449 56.4412C18.9118 56.4412 8.05774 45.5893 8.05774 32.254C8.05774 18.9127 18.9121 8.06199 32.2449 8.06199C45.5875 8.06199 56.4321 18.9139 56.4321 32.254C56.4333 45.5893 45.5875 56.4412 32.2449 56.4412Z" fill="#D2D2D2"/>
<path d="M21.2651 38.6942L27.8267 32.257L21.3362 25.6469L25.8635 21.2036L32.3504 27.8125L38.912 21.3766L43.2378 25.7832L36.6775 32.2215L43.1835 38.8496L38.6537 43.2916L32.1513 36.6636L25.5934 43.1032L21.2651 38.6942Z" fill="#D2D2D2"/>
</svg>
