<svg width="162" height="162" viewBox="0 0 162 162" fill="none" xmlns="http://www.w3.org/2000/svg">
<path d="M157.554 136.069L120.382 98.9012C114.846 107.512 107.519 114.843 98.9019 120.386L136.07 157.547C142.001 163.485 151.626 163.485 157.55 157.547C163.483 151.638 163.483 142.004 157.554 136.069" fill="#D2D2D2"/>
<path d="M121.498 60.7574C121.498 27.2071 94.2895 0 60.7403 0C27.2059 0 0 27.2082 0 60.7574C0 94.2986 27.2082 121.498 60.7403 121.498C94.2883 121.498 121.498 94.2986 121.498 60.7574ZM60.7403 106.319C35.6244 106.319 15.1785 85.8773 15.1785 60.7574C15.1785 35.6261 35.625 15.1865 60.7403 15.1865C85.8739 15.1865 106.302 35.6284 106.302 60.7574C106.304 85.8773 85.8739 106.319 60.7403 106.319Z" fill="#D2D2D2"/>
<path d="M40.0576 72.8887L52.4178 60.763L40.1914 48.3114L48.7196 39.9415L60.9391 52.3908L73.2993 40.2674L81.4479 48.5681L69.09 60.6961L81.3456 73.1815L72.8128 81.549L60.5641 69.0637L48.2108 81.194L40.0576 72.8887Z" fill="#D2D2D2"/>
</svg>
