<svg width="21" height="17" viewBox="0 0 21 17" fill="none" xmlns="http://www.w3.org/2000/svg">
<path d="M0.759952 0H0.749405C0.33529 0 0 0.345803 0 0.772868C0 1.19993 0.335305 1.54574 0.749405 1.54574H0.760538H20.24H20.2506C20.6647 1.54574 21 1.19993 21 0.772868C21 0.345803 20.6647 0 20.2506 0H20.2395H0.759952ZM0.759952 7.72713H0.749405C0.33529 7.72713 0 8.07294 0 8.5C0 8.92707 0.335305 9.27287 0.749405 9.27287H0.760538H20.24H20.2506C20.6647 9.27287 21 8.92707 21 8.5C21 8.07294 20.6647 7.72713 20.2506 7.72713H20.2395H0.759952ZM0.759952 15.4543H0.749405C0.33529 15.4543 0 15.8001 0 16.2271C0 16.6542 0.335305 17 0.749405 17H0.760538H20.24H20.2506C20.6647 17 21 16.6542 21 16.2271C21 15.8001 20.6647 15.4543 20.2506 15.4543H20.2395H0.759952Z" fill="#272838" fill-opacity="0.85"/>
</svg>
