<svg width="13" height="13" viewBox="0 0 13 13" fill="none" xmlns="http://www.w3.org/2000/svg">
<path d="M8.53901 3.72211L6.50004 5.76108L4.46107 3.72211L3.72217 4.46101L5.76114 6.49998L3.72217 8.53895L4.46107 9.27785L6.50004 7.23888L8.53901 9.27785L9.27791 8.53895L7.23894 6.49998L9.27791 4.46101L8.53901 3.72211Z" fill="#FF5353" fill-opacity="0.85"/>
<path d="M6.5 0C2.91474 0 0 2.91474 0 6.5C0 10.0853 2.91474 13 6.5 13C10.0853 13 13 10.0853 13 6.5C13 2.91474 10.0853 0 6.5 0ZM6.5 11.96C3.48947 11.96 1.04 9.51053 1.04 6.5C1.04 3.48947 3.48947 1.04 6.5 1.04C9.51053 1.04 11.96 3.48947 11.96 6.5C11.96 9.51053 9.51053 11.96 6.5 11.96Z" fill="#FF5353" fill-opacity="0.85"/>
</svg>
