<svg width="0" height="0" class="hidden">
  <symbol fill="none" xmlns="http://www.w3.org/2000/svg" viewBox="0 0 13 11" id="logout-icon">
    <path d="M12.9999 5.30611C12.9999 5.12371 12.9337 4.95784 12.801 4.84183L10.3469 2.37114C10.0816 2.10581 9.66707 2.10581 9.40173 2.37114C9.1364 2.63647 9.1364 3.05101 9.40173 3.31635L10.7283 4.6429L4.1454 4.64279C3.7806 4.64279 3.48219 4.9412 3.48219 5.30599C3.48219 5.67079 3.7806 5.9692 4.1454 5.9692H10.7449L9.41832 7.29576C9.15298 7.56109 9.15298 7.97563 9.41832 8.24097C9.55098 8.37363 9.71673 8.43991 9.8826 8.43991C10.0485 8.43991 10.2142 8.37363 10.3469 8.24097L12.8009 5.78692C12.9337 5.65425 13 5.48851 13 5.30611L12.9999 5.30611Z" fill="var(--clr-icon)"></path>
    <path d="M2.45405 1.32653H6.63261C6.99741 1.32653 7.29581 1.02812 7.29581 0.66332C7.29581 0.298525 6.99741 0.000115664 6.63261 0.000115664L2.45405 0C1.11097 0 0 1.11106 0 2.45417V8.14165C0 9.5014 1.11097 10.6123 2.45405 10.6123H6.63261C6.99741 10.6123 7.29581 10.3139 7.29581 9.94914C7.29581 9.58434 6.99741 9.28593 6.63261 9.28593L2.45405 9.28582C1.82392 9.28582 1.32656 8.77182 1.32656 8.15833V2.45426C1.32656 1.84065 1.84056 1.32665 2.45405 1.32665V1.32653Z" fill="var(--clr-icon)"></path>
  </symbol>
</svg>