<svg width="19" height="18" viewBox="0 0 19 18" fill="none" xmlns="http://www.w3.org/2000/svg">
<path d="M10.7693 4.58234H15.2964L10.7693 0.738914V4.58234Z" fill="black" fill-opacity="0.5"/>
<path d="M11.2814 13.6394H0.956129V0.956501H9.24407V5.16023V5.16009C9.24421 5.41123 9.34403 5.65207 9.52157 5.82976C9.69911 6.0073 9.93994 6.10712 10.1911 6.10712H14.9326V10.4852C15.0525 10.4746 15.1736 10.4683 15.2961 10.4683C15.4942 10.4684 15.692 10.4829 15.888 10.5113V5.88575C15.888 5.69077 15.8106 5.5039 15.6727 5.36604C15.535 5.22818 15.348 5.15074 15.1532 5.15074H10.6271C10.514 5.15074 10.4056 5.10584 10.3256 5.02592C10.2457 4.94601 10.2008 4.83753 10.2008 4.72453V0.73487C10.2008 0.540027 10.1233 0.353023 9.9856 0.215301C9.84774 0.0774415 9.66073 0 9.46589 0H0.405328C0.181514 0 0 0.181524 0 0.405328V14.1902C0 14.4142 0.181524 14.5955 0.405328 14.5955H11.1686C11.1688 14.2734 11.2068 13.9524 11.2818 13.6392L11.2814 13.6394Z" fill="black" fill-opacity="0.5"/>
<path d="M8.43208 6.30967C8.43208 6.77448 8.05515 7.15123 7.59038 7.15123C7.12544 7.15123 6.74869 6.77444 6.74869 6.30967C6.74869 5.84473 7.12547 5.46798 7.59038 5.46798C8.05519 5.46798 8.43208 5.84476 8.43208 6.30967Z" fill="black" fill-opacity="0.5"/>
<path d="M12.5926 11.4808L11.2784 9.0078C11.2461 8.94711 11.1897 8.9029 11.1229 8.88615C11.0562 8.8694 10.9856 8.88175 10.9285 8.91993L9.20378 10.0763V10.0765C9.14007 10.119 9.06015 10.1292 8.98793 10.1039C8.91557 10.0785 8.85955 10.0206 8.83661 9.94753L8.28615 8.19602C8.26569 8.13094 8.219 8.07752 8.15721 8.04869C8.09556 8.01985 8.02444 8.01834 7.96155 8.0443L6.55153 8.62717C6.44608 8.6707 6.32456 8.63514 6.25933 8.54149L5.33553 7.21548V7.21562C5.28541 7.14367 5.20041 7.1044 5.11322 7.11264C5.02589 7.12088 4.94996 7.17553 4.91426 7.25544L2.59594 12.4522C2.56243 12.5274 2.56916 12.6145 2.61406 12.6836C2.65882 12.7525 2.73558 12.7942 2.81783 12.7942H11.5831C11.8279 12.293 12.1712 11.8464 12.5925 11.4809L12.5926 11.4808Z" fill="black" fill-opacity="0.5"/>
<path d="M15.296 11.1918C14.3932 11.1918 13.5274 11.5505 12.889 12.1888C12.2505 12.8272 11.8918 13.693 11.8918 14.596C11.8918 15.4988 12.2505 16.3646 12.889 17.003C13.5273 17.6414 14.3932 18 15.296 18C16.199 18 17.0647 17.6414 17.7032 17.003C18.3415 16.3645 18.7002 15.4988 18.7002 14.5959C18.7002 13.693 18.3415 12.8272 17.7032 12.1888C17.0647 11.5505 16.1988 11.1918 15.296 11.1918V11.1918ZM14.7215 12.7337C14.7217 12.5715 14.7902 12.417 14.9103 12.308C15.0303 12.199 15.1908 12.1457 15.3522 12.1612C15.4969 12.1792 15.6299 12.2501 15.7255 12.36C15.8212 12.4702 15.8728 12.6117 15.8705 12.7576V14.7959C15.8702 15.0009 15.7607 15.1901 15.583 15.2926C15.4054 15.395 15.1867 15.395 15.009 15.2926C14.8315 15.1901 14.7219 15.0009 14.7215 14.7959L14.7215 12.7337ZM15.296 17.0333C15.1391 17.0333 14.9885 16.9709 14.8775 16.8599C14.7666 16.749 14.7041 16.5983 14.7041 16.4414C14.7041 16.2843 14.7666 16.1338 14.8775 16.0229C14.9885 15.9118 15.1391 15.8495 15.296 15.8495C15.4531 15.8495 15.6036 15.9118 15.7145 16.0229C15.8256 16.1338 15.888 16.2843 15.888 16.4414C15.888 16.5984 15.8256 16.749 15.7145 16.8599C15.6036 16.9709 15.4531 17.0333 15.296 17.0333Z" fill="black" fill-opacity="0.5"/>
</svg>
