<svg width="21" height="19" viewBox="0 0 21 19" fill="none" xmlns="http://www.w3.org/2000/svg">
<path d="M1.52174 16.5714L1.45459 17.0829C1.42423 17.3349 1.62293 17.5566 1.88051 17.5566H18.5163C18.7748 17.5566 18.9735 17.3349 18.9441 17.0829L18.8751 16.5714C18.8337 16.1731 19.1244 15.8088 19.5218 15.7674C19.922 15.7242 20.2752 16.0158 20.3166 16.4132L20.381 16.9109C20.5107 18.023 19.8796 19 18.7555 19H1.64225C0.518111 19 -0.112953 18.024 0.0167558 16.9109L0.0811498 16.4132C0.123466 16.0158 0.475795 15.7242 0.87412 15.7674C1.27244 15.8097 1.56222 16.1731 1.52174 16.5714Z" fill="#D60510"/>
<path d="M16.9 12.7151C17.7095 12.717 18.3544 12.1273 18.3378 11.3509C18.3213 10.5561 17.5982 10.0428 16.7915 10.0418H15.1632C14.8026 10.0418 14.5064 9.74194 14.5064 9.36662C14.5064 8.99037 14.8017 8.68956 15.1632 8.68956H16.2515C16.9846 8.66012 17.5504 8.2158 17.5853 7.52218C17.6221 6.77981 16.9837 6.22233 16.2027 6.22233H13.5625L13.5515 12.716H16.9V12.7151ZM18.9017 7.51758C18.9017 8.19464 18.6616 8.57825 18.2642 9.05017L18.2247 9.098L18.2799 9.13204C19.0664 9.61132 19.6156 10.3362 19.6561 11.3536C19.7168 12.8697 18.4326 14.1235 16.9074 14.1208H12.8873C12.4964 14.1208 12.1799 13.7951 12.1799 13.3949V5.59771C12.1799 5.19571 12.4964 4.87189 12.8855 4.87189L16.2045 4.88109C17.6516 4.88201 18.9017 5.94544 18.9017 7.51758Z" fill="black"/>
<path d="M5.94471 11.4475L5.9631 11.5027L5.98334 11.4475C6.17008 10.9341 6.39455 10.3656 6.6328 9.74561C6.87842 9.09339 7.12312 8.46969 7.36782 7.87542C7.61528 7.27195 7.84894 6.7338 8.07248 6.26464C8.2951 5.78537 8.48 5.45603 8.62259 5.27573C8.84245 5.01263 9.13314 4.88017 9.49467 4.88017H9.66118C9.88288 4.88017 10.0558 4.93812 10.1855 5.04851C10.3042 5.15246 10.375 5.27205 10.3953 5.40912L11.4339 13.4658C11.4339 13.6737 11.3741 13.8337 11.2563 13.9533C11.1386 14.0646 10.9702 14.1198 10.7504 14.1198C10.5305 14.1198 10.3557 14.0674 10.2278 13.9653C10.0862 13.8632 10.0052 13.7289 9.98499 13.5624C9.95003 13.2947 9.91783 12.9966 9.88564 12.67C9.83964 12.3444 9.67774 10.9388 9.63174 10.5846C9.58942 10.2194 9.29689 7.94349 9.19754 7.11649L9.18834 7.04657L8.85533 7.74479C8.74218 7.98489 8.61983 8.27375 8.48552 8.60952C8.35305 8.94529 8.2169 9.30037 8.08352 9.67478C7.93817 10.0381 7.29515 11.8761 7.29515 11.8761C7.23535 12.0427 7.1222 12.3784 7.02009 12.6875C6.91614 12.9948 6.82139 13.2726 6.79563 13.3259C6.64292 13.6295 6.34487 13.8301 5.96586 13.8328C5.58226 13.831 5.2842 13.6295 5.13334 13.3259C5.10574 13.2726 5.01099 12.9938 4.90704 12.6875C4.80309 12.3784 4.6927 12.0427 4.63014 11.8761C4.63014 11.8761 3.98712 10.0381 3.84361 9.67478C3.7093 9.30037 3.57499 8.94621 3.44069 8.60952C3.30638 8.27375 3.18403 7.98489 3.07364 7.74479L2.73879 7.04657L2.73143 7.11649C2.63024 7.94349 2.34046 10.2194 2.29631 10.5846C2.25031 10.9388 2.08841 12.3444 2.04425 12.67C2.01021 12.9966 1.9771 13.2947 1.94214 13.5624C1.9219 13.7289 1.84095 13.8632 1.70112 13.9653C1.57141 14.0674 1.39755 14.1198 1.17677 14.1198C0.956906 14.1198 0.7904 14.0646 0.672651 13.9533C0.554901 13.8337 0.495106 13.6718 0.494186 13.4658L1.53277 5.40912C1.55577 5.27205 1.62477 5.15246 1.74344 5.04851C1.87222 4.93812 2.04793 4.88017 2.26595 4.88017H2.4343C2.79674 4.88017 3.08652 5.01355 3.30546 5.27573C3.44897 5.45603 3.63203 5.78445 3.85557 6.26464C4.08003 6.7338 4.31369 7.27195 4.56023 7.87542C4.80493 8.46969 5.05054 9.09339 5.29708 9.74561C5.5335 10.3656 5.75796 10.9341 5.94471 11.4475Z" fill="black"/>
<path d="M3.90616 0H16.5422C17.7325 0 18.325 0.894161 18.4639 2.07258L18.5172 2.44974C18.5595 2.85451 18.2624 3.21696 17.865 3.25927C17.4667 3.30159 17.1088 3.00905 17.0674 2.60429L17.0168 2.24368C16.9635 1.79568 16.774 1.45071 16.3186 1.45071H4.1297C3.67434 1.45071 3.48484 1.79568 3.43148 2.24368L3.38272 2.60429C3.34133 3.00905 2.9844 3.30251 2.58332 3.25927C2.18499 3.21696 1.88786 2.85451 1.93109 2.44974L1.98445 2.07258C2.1252 0.893241 2.7167 0 3.90616 0Z" fill="#D60510"/>
</svg>
