<svg width="20" height="19" viewBox="0 0 20 19" fill="none" xmlns="http://www.w3.org/2000/svg">
<path fill-rule="evenodd" clip-rule="evenodd" d="M9.87965 19H18.0864C19.9592 19 19.9787 17.0168 19.7874 16.0381C19.6833 15.3797 18.5601 15.39 18.4365 16.0381V16.8016C18.4362 16.97 18.3689 17.1313 18.2493 17.2503C18.1298 17.3694 17.9678 17.4364 17.7988 17.4368H2.06721C1.89818 17.4364 1.73618 17.3694 1.61667 17.2503C1.49715 17.1313 1.42985 16.97 1.42951 16.8016V16.0381C1.30587 15.39 0.182746 15.3797 0.0786317 16.0381C-0.112677 17.0168 -0.0931561 19 1.77959 19H9.87965ZM4.07921 0H16.7316C17.6205 0 18.348 0.767362 18.348 1.70453V2.51856C18.348 3.6696 16.7863 3.66442 16.7863 2.52633V2.08303C16.7863 1.94551 16.7315 1.81364 16.6338 1.7164C16.5362 1.61916 16.4038 1.56454 16.2657 1.56454H3.58727C3.4492 1.56454 3.3168 1.61916 3.21917 1.7164C3.12154 1.81364 3.0667 1.94551 3.0667 2.08303V2.51856C3.0667 3.66312 1.57527 3.65534 1.57527 2.54318V1.70583C1.57917 0.768659 2.30537 0 3.19424 0H4.07921Z" fill="#3D73B9"/>
<path fill-rule="evenodd" clip-rule="evenodd" d="M18.0291 9.36001C18.4636 9.55325 18.8337 9.86589 19.096 10.2612C19.3583 10.6566 19.502 11.1183 19.5102 11.5921C19.5102 12.9635 18.3076 14.086 16.8383 14.086H12.7167C12.5379 14.0913 12.3642 14.0263 12.2332 13.905C12.1022 13.7837 12.0244 13.6159 12.0166 13.4379V5.62431C12.0173 5.44278 12.0901 5.2689 12.2191 5.14066C12.348 5.01242 12.5228 4.94024 12.705 4.9399H16.1369C16.6514 4.93871 17.1549 5.08847 17.5846 5.3705C18.0142 5.65252 18.351 6.05432 18.5528 6.52576C18.7546 6.99719 18.8126 7.51738 18.7195 8.02142C18.6263 8.52546 18.3862 8.99102 18.0291 9.36001ZM14.9539 8.72487H16.2618V8.71061C16.5553 8.66473 16.8229 8.51627 17.0165 8.29182C17.2101 8.06738 17.3172 7.7816 17.3186 7.48568C17.3175 7.15734 17.1861 6.84275 16.953 6.61057C16.7199 6.3784 16.4041 6.24752 16.0744 6.24649H13.439V12.7276H16.7798C16.952 12.7331 17.1235 12.704 17.2843 12.6421C17.445 12.5802 17.5916 12.4868 17.7153 12.3674C17.8391 12.248 17.9375 12.1051 18.0047 11.9471C18.0719 11.789 18.1065 11.6192 18.1065 11.4476C18.1065 11.276 18.0719 11.1061 18.0047 10.9481C17.9375 10.7901 17.8391 10.6471 17.7153 10.5277C17.5916 10.4083 17.445 10.3149 17.2843 10.253C17.1235 10.1912 16.952 10.1621 16.7798 10.1676H16.2592H14.9539C14.859 10.1676 14.7651 10.149 14.6775 10.1128C14.5898 10.0766 14.5102 10.0237 14.4431 9.95685C14.3761 9.89005 14.3229 9.81074 14.2866 9.72346C14.2503 9.63618 14.2316 9.54263 14.2316 9.44816C14.2316 9.35368 14.2503 9.26014 14.2866 9.17285C14.3229 9.08557 14.3761 9.00627 14.4431 8.93946C14.5102 8.87266 14.5898 8.81967 14.6775 8.78352C14.7651 8.74736 14.859 8.72875 14.9539 8.72875" fill="#1D1D1B"/>
<path d="M11.362 13.307C11.3779 13.4167 11.3715 13.5286 11.343 13.6358C11.3145 13.743 11.2646 13.8434 11.1963 13.9309C11.1279 14.0185 11.0426 14.0914 10.9453 14.1453C10.848 14.1993 10.7408 14.2331 10.6301 14.2448C10.5193 14.2565 10.4074 14.2458 10.3009 14.2134C10.1944 14.181 10.0956 14.1275 10.0104 14.0562C9.92512 13.9848 9.8552 13.8971 9.80479 13.7982C9.75438 13.6993 9.72452 13.5913 9.717 13.4807L9.03635 7.2705L6.64043 13.3433V13.3588V13.3718V13.3848V13.3925V13.4042V13.4172C6.58789 13.5087 6.51754 13.5889 6.43351 13.6531L6.42049 13.6635C6.37692 13.7026 6.32887 13.7366 6.27734 13.7646L6.26172 13.7723L6.2474 13.7801H6.23829H6.22788H6.21877H6.20836H6.20055H6.19144H6.18363H6.17582H6.16541C6.08761 13.8078 6.00593 13.8231 5.92335 13.8255H5.86348C5.77067 13.8228 5.67904 13.804 5.59279 13.7697H5.58107H5.56936H5.55895H5.55114H5.54073H5.53162H5.52511L5.5108 13.762L5.49778 13.7542H5.48997C5.44378 13.7297 5.40018 13.7006 5.35983 13.6673L5.3325 13.6427L5.31168 13.6233L5.26223 13.6103L5.2375 13.5831C5.20414 13.5429 5.17493 13.4995 5.1503 13.4535V13.4457L5.14249 13.4327L5.13469 13.4185V13.4094V13.399V13.3912V13.3796V13.3692V13.3575L2.69452 7.2705L2.01648 13.4807C1.99335 13.6978 1.88459 13.8968 1.71411 14.0341C1.54363 14.1713 1.3254 14.2354 1.10743 14.2124C0.889465 14.1894 0.689611 14.081 0.551837 13.9112C0.414063 13.7414 0.349654 13.5241 0.372779 13.307L1.17185 5.98594C1.19115 5.81353 1.24327 5.64635 1.32542 5.49338C1.42795 5.30225 1.57466 5.13816 1.75343 5.01465C1.93219 4.89114 2.1379 4.81175 2.35354 4.78305H2.39779C2.46754 4.77789 2.53758 4.77789 2.60732 4.78305C2.6915 4.78638 2.77516 4.79767 2.8572 4.81675C3.07308 4.86599 3.27358 4.9671 3.44122 5.11124C3.60886 5.25539 3.73854 5.43821 3.81895 5.64374L5.86739 10.8001L7.91192 5.62689C8.00807 5.38168 8.17387 5.16969 8.38905 5.01683C8.60423 4.86397 8.85946 4.77688 9.12355 4.7662C9.19329 4.76104 9.26333 4.76104 9.33308 4.7662H9.37732C9.59291 4.79511 9.79852 4.87457 9.97726 4.99806C10.156 5.12155 10.3027 5.28553 10.4054 5.47653C10.4454 5.55316 10.4789 5.63293 10.5057 5.71503C10.532 5.79949 10.5498 5.88632 10.559 5.97428L11.362 13.307Z" fill="#1D1D1B"/>
</svg>
