<svg width="0" height="0" class="hidden">
  <symbol xmlns="http://www.w3.org/2000/svg" viewBox="0 0 15 15" id="send-message-icon">
    <path d="M1.80641 8.55685L3.81297 9.35851C4.64602 9.69353 5.30628 10.3538 5.6413 11.1868L6.44296 13.1934C6.73808 13.9292 7.32376 14.5106 8.0615 14.8005C8.7994 15.0906 9.62412 15.0633 10.3413 14.7255C11.0584 14.3875 11.6045 13.7688 11.8506 13.0152L14.858 3.7823C15.0792 3.10325 15.0409 2.36635 14.7505 1.71396C14.4603 1.0614 13.9386 0.53965 13.286 0.249452C12.6337 -0.0409337 11.8968 -0.0791958 11.2177 0.142029L1.98479 3.1494C1.23119 3.39548 0.612494 3.94159 0.274537 4.65874C-0.0632648 5.37588 -0.0905726 6.2006 0.199487 6.9385C0.489383 7.67624 1.07079 8.26191 1.8066 8.55704L1.80641 8.55685ZM2.57521 4.92359L11.8106 1.91621C11.9081 1.88809 12.0093 1.87452 12.1107 1.87648C12.4342 1.87714 12.7379 2.03247 12.9278 2.29424C13.1178 2.55618 13.1713 2.89301 13.0717 3.20071L10.0762 12.4244C10.0124 12.6276 9.88551 12.8054 9.714 12.9319C9.54248 13.0583 9.33515 13.1268 9.12209 13.1275C8.92049 13.1288 8.7233 13.0693 8.55605 12.9568C8.3888 12.8443 8.25929 12.6841 8.1844 12.497L7.38045 10.4905C7.23722 10.1353 7.05475 9.79734 6.83664 9.48262L6.87179 9.45449L9.33305 6.99324C9.57013 6.75631 9.66268 6.41083 9.57586 6.08711C9.4892 5.76336 9.23625 5.51044 8.9125 5.42375C8.58876 5.33693 8.24328 5.42947 8.00637 5.66656L5.54511 8.12781C5.54511 8.12781 5.52631 8.1512 5.51699 8.16297C5.20224 7.94485 4.86426 7.76238 4.50915 7.61916L2.50258 6.8175C2.24212 6.71564 2.03608 6.50978 1.93391 6.2495C1.83188 5.98919 1.843 5.69798 1.96481 5.44634C2.08646 5.19454 2.30785 5.00503 2.57518 4.92345L2.57521 4.92359Z"></path>
  </symbol>
</svg>