<svg width="0" height="0" class="hidden">
  <symbol fill="none" xmlns="http://www.w3.org/2000/svg" viewBox="0 0 13 13" id="success">
    <path d="M6.5 0C2.88894 0 0 2.88894 0 6.5C0 10.1111 2.88894 13 6.5 13C10.1111 13 13 10.1111 13 6.5C13 2.88894 10.1111 0 6.5 0ZM9.89447 4.83902L5.92212 9.17235C5.77763 9.31684 5.56106 9.38908 5.41659 9.38908C5.27212 9.38908 5.05553 9.31684 4.91106 9.17235L3.10545 7.22243C2.81664 6.93361 2.88872 6.50015 3.1777 6.21133C3.46651 5.92251 3.89997 5.9946 4.18879 6.28357L5.4166 7.65573L8.88334 3.9002C9.17216 3.61138 9.60561 3.61138 9.89444 3.82796C10.1833 4.04469 10.1833 4.55023 9.89444 4.83906L9.89447 4.83902Z" fill="var(--clr-icon)"></path>
  </symbol>
</svg>