<svg width="0" height="0" class="hidden">
  <symbol fill="none" xmlns="http://www.w3.org/2000/svg" viewBox="0 0 28 21" id="support-ticket-icon">
    <path fill-rule="evenodd" clip-rule="evenodd" d="M21.0695 17.0777C21.498 17.0777 21.845 17.4208 21.845 17.8438C21.845 18.2669 21.498 18.6104 21.0695 18.6104C20.6393 18.6104 20.2922 18.2669 20.2922 17.8438C20.2922 17.4208 20.6392 17.0777 21.0695 17.0777ZM21.3006 10.5857C22.9979 10.6147 24.4309 12.472 23.2743 14.1026C22.9957 14.4659 22.6469 14.5738 22.3472 14.7391C21.8048 15.0365 21.6477 14.9607 21.6477 15.6371C21.6477 16.4361 20.4619 16.4307 20.4239 15.6371L20.4027 15.1541C20.3807 14.6958 20.7062 14.3139 20.9863 14.1172C21.3985 13.8261 21.637 13.8407 21.9913 13.3944C22.8226 12.3444 21.3047 11.2773 20.1335 12.0858C19.8333 12.294 19.6538 12.5792 19.6538 13.1233C19.6741 13.9221 18.4668 13.9221 18.4866 13.1233C18.4866 12.2558 18.8877 11.5546 19.4443 11.1481C20.0013 10.7388 20.672 10.5856 21.3007 10.5856L21.3006 10.5857ZM21.2048 8.36982C20.5761 8.3574 19.9651 8.43517 19.3866 8.59398C17.0714 9.22834 15.2733 11.1511 14.9949 13.468C14.7149 15.7852 15.3114 17.4567 16.43 18.6932L15.8915 20.2203C15.7053 20.7464 16.0377 21.1544 16.5564 20.9431L18.4451 20.1678C19.0343 20.4388 19.6759 20.6249 20.3571 20.7085C23.764 21.1187 26.8223 18.7976 27.2428 15.3029C27.6637 11.8093 25.2438 8.82766 21.839 8.41721C21.6259 8.39019 21.4142 8.3756 21.2046 8.36993L21.2048 8.36982Z" fill="var(--clr-icon)"></path>
    <path d="M6.6144 13.7863H8.30011C8.46893 13.7863 8.60422 13.9218 8.60422 14.0897V17.2979C8.60422 17.465 8.4685 17.6007 8.30011 17.6007H6.6144C6.44622 17.6007 6.31072 17.465 6.31072 17.2979V14.0897C6.31116 13.9218 6.44622 13.7863 6.6144 13.7863ZM6.6144 7.77889H8.30011C8.46893 7.77889 8.60422 7.91635 8.60422 8.08257V11.2923C8.60422 11.4603 8.4685 11.596 8.30011 11.596H6.6144C6.44622 11.596 6.31072 11.4603 6.31072 11.2923V8.08257C6.31116 7.91461 6.44622 7.77889 6.6144 7.77889ZM6.6144 1.77154H8.30011C8.46893 1.77154 8.60422 1.90725 8.60422 2.07521V5.28495C8.60422 5.45291 8.4685 5.58863 8.30011 5.58863H6.6144C6.44622 5.58863 6.31072 5.45291 6.31072 5.28495V2.07521C6.31116 1.90725 6.44622 1.77154 6.6144 1.77154ZM2.86225 0C1.27414 0 0 1.27659 0 2.86359V4.94904C0 5.85639 0.0540255 5.81474 0.759174 6.00279C2.28583 6.41124 3.39227 7.91698 3.39227 9.68762C3.39227 11.4587 2.28583 12.964 0.759174 13.3707C0.0539836 13.5589 0 13.5193 0 14.4246V16.5101C0 18.0969 1.27419 19.3728 2.86225 19.3728H14.621C14.8652 19.3728 14.8691 19.129 14.7622 18.9739C13.7307 17.4612 13.0922 15.5884 13.3743 13.2499C13.7372 10.2338 16.0287 7.81156 18.9498 7.01106C19.9255 6.74355 20.9723 6.66033 22.0351 6.78668C23.9435 7.01803 25.6265 7.90924 26.841 9.22894C27.092 9.50343 27.6137 9.37882 27.6137 9.09867V2.86378C27.6137 1.27678 26.3347 0.000189763 24.7514 0.000189763L2.86225 0Z" fill="var(--clr-icon)"></path>
  </symbol>
</svg>