<svg width="0" height="0" class="hidden">
  <symbol fill="none" xmlns="http://www.w3.org/2000/svg" viewBox="0 0 25 25" id="warning">
    <path d="M12.5 0.32001C9.34914 0.32001 6.32756 1.5717 4.09959 3.79958C1.87172 6.02745 0.620026 9.04941 0.620026 12.2C0.620026 15.3505 1.87172 18.3724 4.09959 20.6003C6.32747 22.8282 9.34942 24.0799 12.5 24.0799C15.6505 24.0799 18.6724 22.8282 20.9004 20.6003C23.1282 18.3725 24.3799 15.3505 24.3799 12.2C24.3764 9.05025 23.1237 6.03038 20.8965 3.80335C18.6693 1.57632 15.6495 0.323451 12.4999 0.319916L12.5 0.32001ZM13.6588 19.1277C13.6588 19.2229 13.6211 19.3142 13.5539 19.3814C13.4865 19.4486 13.3953 19.4866 13.3001 19.4866H11.6997C11.6045 19.4866 11.5133 19.4486 11.4461 19.3814C11.3787 19.3142 11.3409 19.2229 11.3409 19.1277V17.4721C11.3409 17.274 11.5015 17.1134 11.6997 17.1134H13.3001C13.3953 17.1134 13.4865 17.1512 13.5539 17.2184C13.6211 17.2858 13.6588 17.3769 13.6588 17.4721V19.1277ZM13.6588 14.4889V14.4891C13.6588 14.5841 13.6211 14.6754 13.5539 14.7427C13.4865 14.8101 13.3953 14.8478 13.3001 14.8478H11.6997C11.6045 14.8478 11.5133 14.8101 11.4459 14.7427C11.3787 14.6754 11.3409 14.5841 11.3409 14.4891V5.27217C11.3409 5.17697 11.3787 5.08581 11.4459 5.01841C11.5133 4.9512 11.6045 4.91345 11.6997 4.91345H13.3001C13.3953 4.91345 13.4865 4.9512 13.5539 5.01841C13.6211 5.08581 13.6588 5.17697 13.6588 5.27217V14.4889Z" fill="var(--clr-icon)"></path>
  </symbol>
</svg>